<svg width="484" height="385" viewBox="0 0 484 385" fill="none" xmlns="http://www.w3.org/2000/svg">
<g id="Wifi-icon">
<path id="Dot" d="M241.667 299C218.2 299 199 318.2 199 341.667C199 365.133 218.2 384.333 241.667 384.333C265.133 384.333 284.333 365.133 284.333 341.667C284.333 318.2 265.133 299 241.667 299Z" fill="black"/>
<path id="Middle" d="M106.107 205.653C180.987 130.773 302.8 130.773 377.68 205.653H377.467L347.387 235.733C289.147 177.493 194.427 177.493 136.187 235.733L106.107 205.653Z" fill="black"/>
<path id="Top" d="M242 0C333.093 0 418.853 35.6267 483.28 100.053L453.2 130.133C396.667 73.8133 321.787 42.6667 242 42.6667C162.213 42.6667 87.12 73.8133 30.8 130.133L0.719971 100.053C65.1466 35.4133 150.907 0 242 0Z" fill="black"/>
</g>
</svg>
